<mxfile host="app.diagrams.net" modified="2023-05-29T02:09:21.470Z" agent="Mozilla/5.0 (Macintosh; Intel Mac OS X 10_15_7) AppleWebKit/537.36 (KHTML, like Gecko) Chrome/113.0.0.0 Safari/537.36" etag="eincda5Y4xIKWV46OJlI" version="21.3.5" type="github">
  <diagram name="第 1 页" id="nkKFOPss-8CRhdRxjxcX">
    <mxGraphModel dx="540" dy="303" grid="1" gridSize="10" guides="1" tooltips="1" connect="1" arrows="1" fold="1" page="1" pageScale="1" pageWidth="827" pageHeight="1169" math="0" shadow="0">
      <root>
        <mxCell id="0" />
        <mxCell id="1" parent="0" />
        <mxCell id="2UQits-GJqBjEGgYUCRo-4" value="" style="rounded=1;whiteSpace=wrap;html=1;fillColor=#d5e8d4;strokeColor=#82b366;" vertex="1" parent="1">
          <mxGeometry x="320" y="340" width="293" height="50" as="geometry" />
        </mxCell>
        <mxCell id="2UQits-GJqBjEGgYUCRo-2" value="云服务器IM" style="rounded=1;whiteSpace=wrap;html=1;fillColor=#dae8fc;strokeColor=#6c8ebf;" vertex="1" parent="1">
          <mxGeometry x="354" y="350" width="106" height="30" as="geometry" />
        </mxCell>
        <mxCell id="2UQits-GJqBjEGgYUCRo-3" value="云Paas服务" style="rounded=1;whiteSpace=wrap;html=1;fillColor=#dae8fc;strokeColor=#6c8ebf;" vertex="1" parent="1">
          <mxGeometry x="470" y="350" width="106" height="30" as="geometry" />
        </mxCell>
      </root>
    </mxGraphModel>
  </diagram>
</mxfile>
